# This file uses centimeters as units for non-parametric coordinates.

mtllib tegel.mtl
g default
v 1.394464 -0.187447 1.255032
v 1.255032 -0.187447 1.394464
v -1.394464 -0.187447 1.262003
v -1.262003 -0.187447 1.394464
v 1.394464 -0.187447 -1.262003
v 1.262003 -0.187447 -1.394464
v -1.394464 -0.187447 -1.261654
v -1.261654 -0.187447 -1.394464
v 1.394464 0.151023 1.255032
v 1.358041 0.187447 1.291455
v 1.394464 0.151023 -1.262003
v 1.358041 0.187447 -1.298426
v -1.394464 0.151023 1.262003
v -1.358041 0.187447 1.298426
v -1.394464 0.151023 -1.261654
v -1.358041 0.187447 -1.298078
v 1.255032 0.151023 1.394464
v 1.291455 0.187447 1.358041
v -1.262003 0.151023 1.394464
v -1.298426 0.187447 1.358041
v 1.298426 0.187447 -1.358041
v 1.262003 0.151023 -1.394464
v -1.261654 0.151023 -1.394464
v -1.298078 0.187447 -1.358041
vt 0.625000 0.761874
vt 0.625000 0.987501
vt 0.612501 1.000000
vt 0.386874 1.000000
vt 0.375000 0.988126
vt 0.612501 0.000000
vt 0.637499 0.000000
vt 0.630969 0.250000
vt 0.619031 0.250000
vt 0.363126 -0.000000
vt 0.386874 0.000000
vt 0.380344 0.250000
vt 0.621735 0.491391
vt 0.625000 0.514722
vt 0.613126 0.750000
vt 0.375000 0.514698
vt 0.375000 0.761905
vt 0.863126 0.225711
vt 0.863126 0.000000
vt 0.363126 0.225711
vt 0.136905 -0.000000
vt 0.612501 0.225711
vt 0.378265 0.491360
vt 0.378265 0.258624
vt 0.383609 0.253280
vt 0.621735 0.259234
vt 0.616391 0.496735
vt 0.386905 0.750000
vt 0.386905 0.524289
vt 0.637499 0.225711
vt 0.863126 0.250000
vt 0.369656 0.250000
vt 0.136905 0.250000
vt 0.136905 0.225711
vt 0.615760 0.253271
vt 0.386874 0.225711
vt 0.613126 0.524289
vt 0.383640 0.496735
vn 0.000000 0.000000 1.000000
vn 0.000000 0.000000 1.000000
vn 0.000000 0.000000 1.000000
vn 0.000000 0.000000 1.000000
vn 0.000000 0.000000 -1.000000
vn 0.000000 0.000000 -1.000000
vn 0.000000 0.000000 -1.000000
vn 0.000000 0.000000 -1.000000
vn 1.000000 0.000000 0.000000
vn 1.000000 0.000000 0.000000
vn 1.000000 0.000000 0.000000
vn 1.000000 0.000000 0.000000
vn -1.000000 0.000000 0.000000
vn -1.000000 0.000000 0.000000
vn -1.000000 0.000000 0.000000
vn -1.000000 0.000000 0.000000
vn 0.707107 0.000000 0.707107
vn 0.707107 0.000000 0.707107
vn 0.707107 0.000000 0.707107
vn 0.707107 0.000000 0.707107
vn 0.707107 0.000000 0.707107
vn 0.707107 0.000000 0.707107
vn 0.000000 1.000000 0.000000
vn 0.000000 1.000000 0.000000
vn 0.000000 1.000000 0.000000
vn 0.000000 1.000000 0.000000
vn 0.000000 1.000000 0.000000
vn 0.000000 1.000000 0.000000
vn 0.000000 1.000000 0.000000
vn 0.000000 1.000000 0.000000
vn -0.707107 0.000000 0.707107
vn -0.707107 0.000000 0.707107
vn -0.707106 0.000000 0.707107
vn -0.707106 0.000000 0.707107
vn -0.707106 0.000000 0.707107
vn -0.707106 0.000000 0.707107
vn 0.000000 -1.000000 0.000000
vn 0.000000 -1.000000 0.000000
vn 0.000000 -1.000000 0.000000
vn 0.000000 -1.000000 0.000000
vn 0.000000 -1.000000 0.000000
vn 0.000000 -1.000000 0.000000
vn 0.000000 -1.000000 0.000000
vn 0.000000 -1.000000 0.000000
vn -0.707107 0.000000 -0.707107
vn -0.707107 0.000000 -0.707107
vn -0.707107 0.000000 -0.707107
vn -0.707107 0.000000 -0.707107
vn -0.707107 0.000000 -0.707107
vn -0.707107 0.000000 -0.707107
vn 0.707107 0.000000 -0.707107
vn 0.707107 0.000000 -0.707107
vn 0.707107 0.000000 -0.707107
vn 0.707107 0.000000 -0.707107
vn 0.707107 0.000000 -0.707107
vn 0.707107 0.000000 -0.707107
vn 0.707104 0.707109 0.000000
vn 0.707104 0.707109 0.000000
vn 0.707104 0.707109 0.000000
vn 0.707104 0.707109 0.000000
vn -0.707106 0.707108 0.000000
vn -0.707106 0.707108 0.000000
vn -0.707106 0.707108 0.000000
vn -0.707106 0.707108 0.000000
vn 0.000000 0.707109 0.707105
vn 0.000000 0.707109 0.707105
vn 0.000000 0.707109 0.707105
vn 0.000000 0.707109 0.707104
vn 0.000000 0.707109 -0.707105
vn 0.000000 0.707109 -0.707105
vn 0.000000 0.707109 -0.707105
vn 0.000000 0.707109 -0.707105
s off
g pCube1
usemtl initialShadingGroup
f 17/22/1 19/36/2 4/11/3 2/6/4
f 8/28/5 23/29/6 22/37/7 6/15/8
f 11/18/9 9/30/10 1/7/11 5/19/12
f 13/20/13 15/34/14 7/21/15 3/10/16
f 2/6/17 1/7/18 9/30/19 10/8/20 18/9/21 17/22/22
f 16/23/23 14/24/24 20/25/25 18/35/26 10/26/27 12/13/28 21/27/29 24/38/30
f 3/10/31 4/11/32 19/36/33 20/12/34 14/32/35 13/20/36
f 7/17/37 8/28/38 6/15/39 5/1/40 1/2/41 2/3/42 4/4/43 3/5/44
f 15/16/45 16/23/46 24/38/47 23/29/48 8/28/49 7/17/50
f 22/37/51 21/27/52 12/13/53 11/14/54 5/1/55 6/15/56
f 10/8/57 9/30/58 11/18/59 12/31/60
f 13/20/61 14/32/62 16/33/63 15/34/64
f 17/22/65 18/35/66 20/25/67 19/36/68
f 21/27/69 22/37/70 23/29/71 24/38/72
